<?xml version="1.0" encoding="UTF-8" standalone="no"?><svg xmlns="http://www.w3.org/2000/svg" xmlns:xlink="http://www.w3.org/1999/xlink" contentScriptType="application/ecmascript" contentStyleType="text/css" height="1412px" preserveAspectRatio="none" style="width:1130px;height:1412px;" version="1.1" viewBox="0 0 1130 1412" width="1130px" zoomAndPan="magnify"><defs><filter height="300%" id="fypalthm1v0gt" width="300%" x="-1" y="-1"><feGaussianBlur result="blurOut" stdDeviation="2.0"/><feColorMatrix in="blurOut" result="blurOut2" type="matrix" values="0 0 0 0 0 0 0 0 0 0 0 0 0 0 0 0 0 0 .4 0"/><feOffset dx="4.0" dy="4.0" in="blurOut2" result="blurOut3"/><feBlend in="SourceGraphic" in2="blurOut3" mode="normal"/></filter></defs><g><text fill="#000000" font-family="sans-serif" font-size="14" font-weight="bold" lengthAdjust="spacingAndGlyphs" textLength="126" x="503.25" y="23.5352">质量门禁调用时序图</text><rect fill="#FFFFFF" filter="url(#fypalthm1v0gt)" height="133.1738" style="stroke: #000000; stroke-width: 2.0;" width="565.5" x="13" y="133.9766"/><rect fill="#FFFFFF" filter="url(#fypalthm1v0gt)" height="217.1055" style="stroke: #000000; stroke-width: 2.0;" width="1106.5" x="13" y="281.1504"/><rect fill="#FFFFFF" filter="url(#fypalthm1v0gt)" height="795.4531" style="stroke: #000000; stroke-width: 2.0;" width="791.5" x="13" y="512.2559"/><rect fill="#FFFFFF" filter="url(#fypalthm1v0gt)" height="46.6211" style="stroke: #000000; stroke-width: 2.0;" width="278" x="253.5" y="679.8086"/><rect fill="#FFFFFF" filter="url(#fypalthm1v0gt)" height="361.1055" style="stroke: #000000; stroke-width: 2.0;" width="551" x="243.5" y="740.4297"/><rect fill="#FFFFFF" filter="url(#fypalthm1v0gt)" height="46.6211" style="stroke: #000000; stroke-width: 2.0;" width="448" x="253.5" y="1005.6035"/><line style="stroke: #A80036; stroke-width: 1.0; stroke-dasharray: 5.0,5.0;" x1="41" x2="41" y1="116.9766" y2="1324.709"/><line style="stroke: #A80036; stroke-width: 1.0; stroke-dasharray: 5.0,5.0;" x1="286.5" x2="286.5" y1="116.9766" y2="1324.709"/><line style="stroke: #A80036; stroke-width: 1.0; stroke-dasharray: 5.0,5.0;" x1="498.5" x2="498.5" y1="116.9766" y2="1324.709"/><line style="stroke: #A80036; stroke-width: 1.0; stroke-dasharray: 5.0,5.0;" x1="668.5" x2="668.5" y1="116.9766" y2="1324.709"/><text fill="#000000" font-family="sans-serif" font-size="14" lengthAdjust="spacingAndGlyphs" textLength="31" x="23" y="114.0234">User</text><ellipse cx="41.5" cy="43.4883" fill="#FEFECE" filter="url(#fypalthm1v0gt)" rx="8" ry="8" style="stroke: #A80036; stroke-width: 2.0;"/><path d="M41.5,51.4883 L41.5,78.4883 M28.5,59.4883 L54.5,59.4883 M41.5,78.4883 L28.5,93.4883 M41.5,78.4883 L54.5,93.4883 " fill="none" filter="url(#fypalthm1v0gt)" style="stroke: #A80036; stroke-width: 2.0;"/><text fill="#000000" font-family="sans-serif" font-size="14" lengthAdjust="spacingAndGlyphs" textLength="31" x="23" y="1337.2441">User</text><ellipse cx="41.5" cy="1350.1973" fill="#FEFECE" filter="url(#fypalthm1v0gt)" rx="8" ry="8" style="stroke: #A80036; stroke-width: 2.0;"/><path d="M41.5,1358.1973 L41.5,1385.1973 M28.5,1366.1973 L54.5,1366.1973 M41.5,1385.1973 L28.5,1400.1973 M41.5,1385.1973 L54.5,1400.1973 " fill="none" filter="url(#fypalthm1v0gt)" style="stroke: #A80036; stroke-width: 2.0;"/><rect fill="#FEFECE" filter="url(#fypalthm1v0gt)" height="30.4883" style="stroke: #A80036; stroke-width: 1.5;" width="42" x="263.5" y="81.4883"/><text fill="#000000" font-family="sans-serif" font-size="14" lengthAdjust="spacingAndGlyphs" textLength="28" x="270.5" y="102.0234">云鉴</text><rect fill="#FEFECE" filter="url(#fypalthm1v0gt)" height="30.4883" style="stroke: #A80036; stroke-width: 1.5;" width="42" x="263.5" y="1323.709"/><text fill="#000000" font-family="sans-serif" font-size="14" lengthAdjust="spacingAndGlyphs" textLength="28" x="270.5" y="1344.2441">云鉴</text><rect fill="#FEFECE" filter="url(#fypalthm1v0gt)" height="30.4883" style="stroke: #A80036; stroke-width: 1.5;" width="42" x="475.5" y="81.4883"/><text fill="#000000" font-family="sans-serif" font-size="14" lengthAdjust="spacingAndGlyphs" textLength="28" x="482.5" y="102.0234">云游</text><rect fill="#FEFECE" filter="url(#fypalthm1v0gt)" height="30.4883" style="stroke: #A80036; stroke-width: 1.5;" width="42" x="475.5" y="1323.709"/><text fill="#000000" font-family="sans-serif" font-size="14" lengthAdjust="spacingAndGlyphs" textLength="28" x="482.5" y="1344.2441">云游</text><rect fill="#FEFECE" filter="url(#fypalthm1v0gt)" height="30.4883" style="stroke: #A80036; stroke-width: 1.5;" width="42" x="645.5" y="81.4883"/><text fill="#000000" font-family="sans-serif" font-size="14" lengthAdjust="spacingAndGlyphs" textLength="28" x="652.5" y="102.0234">云启</text><rect fill="#FEFECE" filter="url(#fypalthm1v0gt)" height="30.4883" style="stroke: #A80036; stroke-width: 1.5;" width="42" x="645.5" y="1323.709"/><text fill="#000000" font-family="sans-serif" font-size="14" lengthAdjust="spacingAndGlyphs" textLength="28" x="652.5" y="1344.2441">云启</text><path d="M13,133.9766 L75,133.9766 L75,140.9766 L65,150.9766 L13,150.9766 L13,133.9766 " fill="#EEEEEE" style="stroke: #000000; stroke-width: 1.0;"/><rect fill="none" height="133.1738" style="stroke: #000000; stroke-width: 2.0;" width="565.5" x="13" y="133.9766"/><text fill="#000000" font-family="sans-serif" font-size="13" font-weight="bold" lengthAdjust="spacingAndGlyphs" textLength="17" x="28" y="147.5449">alt</text><text fill="#000000" font-family="sans-serif" font-size="11" font-weight="bold" lengthAdjust="spacingAndGlyphs" textLength="85" x="90" y="146.6113">[基础实验室配置]</text><polygon fill="#A80036" points="274.5,211.874,284.5,215.874,274.5,219.874,278.5,215.874" style="stroke: #A80036; stroke-width: 1.0;"/><line style="stroke: #A80036; stroke-width: 1.0;" x1="41.5" x2="280.5" y1="215.874" y2="215.874"/><text fill="#000000" font-family="sans-serif" font-size="13" font-weight="bold" lengthAdjust="spacingAndGlyphs" textLength="9" x="48.5" y="211.1318">1</text><text fill="#000000" font-family="sans-serif" font-size="13" lengthAdjust="spacingAndGlyphs" textLength="104" x="61.5" y="211.1318">添加实验室元数据</text><path d="M291,156.2871 L291,257.2871 L559,257.2871 L559,166.2871 L549,156.2871 L291,156.2871 " fill="#FBFB77" filter="url(#fypalthm1v0gt)" style="stroke: #A80036; stroke-width: 1.0;"/><path d="M549,156.2871 L549,166.2871 L559,166.2871 L549,156.2871 " fill="#FBFB77" style="stroke: #A80036; stroke-width: 1.0;"/><text fill="#000000" font-family="sans-serif" font-size="13" lengthAdjust="spacingAndGlyphs" textLength="247" x="297" y="173.8555">当创建一个全新当实验室，应该执行此步骤</text><text fill="#000000" font-family="sans-serif" font-size="13" lengthAdjust="spacingAndGlyphs" textLength="107" x="297" y="189.166">1. 指定实验室名称</text><text fill="#000000" font-family="sans-serif" font-size="13" lengthAdjust="spacingAndGlyphs" textLength="120" x="297" y="204.4766">2. 指定实验室标识码</text><text fill="#000000" font-family="sans-serif" font-size="13" lengthAdjust="spacingAndGlyphs" textLength="94" x="297" y="219.7871">3. 指定接入方式</text><text fill="#000000" font-family="sans-serif" font-size="13" lengthAdjust="spacingAndGlyphs" textLength="159" x="297" y="235.0977">4. 添加规则模板与风险模板</text><text fill="#000000" font-family="sans-serif" font-size="13" lengthAdjust="spacingAndGlyphs" textLength="120" x="297" y="250.4082">5. 调整产品接入信息</text><path d="M13,281.1504 L75,281.1504 L75,288.1504 L65,298.1504 L13,298.1504 L13,281.1504 " fill="#EEEEEE" style="stroke: #000000; stroke-width: 1.0;"/><rect fill="none" height="217.1055" style="stroke: #000000; stroke-width: 2.0;" width="1106.5" x="13" y="281.1504"/><text fill="#000000" font-family="sans-serif" font-size="13" font-weight="bold" lengthAdjust="spacingAndGlyphs" textLength="17" x="28" y="294.7188">alt</text><text fill="#000000" font-family="sans-serif" font-size="11" font-weight="bold" lengthAdjust="spacingAndGlyphs" textLength="52" x="90" y="293.7852">[前置准备]</text><polygon fill="#A80036" points="486.5,315.7715,496.5,319.7715,486.5,323.7715,490.5,319.7715" style="stroke: #A80036; stroke-width: 1.0;"/><line style="stroke: #A80036; stroke-width: 1.0;" x1="41.5" x2="492.5" y1="319.7715" y2="319.7715"/><text fill="#000000" font-family="sans-serif" font-size="13" font-weight="bold" lengthAdjust="spacingAndGlyphs" textLength="9" x="48.5" y="315.0293">1</text><text fill="#000000" font-family="sans-serif" font-size="13" lengthAdjust="spacingAndGlyphs" textLength="78" x="61.5" y="315.0293">产品对接云游</text><polygon fill="#A80036" points="656.5,380.7031,666.5,384.7031,656.5,388.7031,660.5,384.7031" style="stroke: #A80036; stroke-width: 1.0;"/><line style="stroke: #A80036; stroke-width: 1.0;" x1="41.5" x2="662.5" y1="384.7031" y2="384.7031"/><text fill="#000000" font-family="sans-serif" font-size="13" font-weight="bold" lengthAdjust="spacingAndGlyphs" textLength="9" x="48.5" y="379.9609">2</text><text fill="#000000" font-family="sans-serif" font-size="13" lengthAdjust="spacingAndGlyphs" textLength="91" x="61.5" y="379.9609">创建场景与任务</text><path d="M673,332.7715 L673,418.7715 L1100,418.7715 L1100,342.7715 L1090,332.7715 L673,332.7715 " fill="#FBFB77" filter="url(#fypalthm1v0gt)" style="stroke: #A80036; stroke-width: 1.0;"/><path d="M1090,332.7715 L1090,342.7715 L1100,342.7715 L1090,332.7715 " fill="#FBFB77" style="stroke: #A80036; stroke-width: 1.0;"/><text fill="#000000" font-family="sans-serif" font-size="13" lengthAdjust="spacingAndGlyphs" textLength="312" x="679" y="350.3398">有两种创建任务的手段，以静态资源检测室实验室为例</text><text fill="#000000" font-family="sans-serif" font-size="13" lengthAdjust="spacingAndGlyphs" textLength="406" x="679" y="365.6504">1. 在云启上新建场景与任务：e.g. 静态资源检测-DTX-58SIT-AKE2.0</text><text fill="#000000" font-family="sans-serif" font-size="13" lengthAdjust="spacingAndGlyphs" textLength="208" x="691" y="380.9609">在云鉴上新建实验室时，关联该任务</text><text fill="#000000" font-family="sans-serif" font-size="13" lengthAdjust="spacingAndGlyphs" textLength="328" x="679" y="396.2715">2. 在云鉴赏新建实验室时，根据模板创建云启场景与任务</text><text fill="#000000" font-family="sans-serif" font-size="13" lengthAdjust="spacingAndGlyphs" textLength="195" x="691" y="411.582">修改任务参数，使之可以合理运行</text><polygon fill="#A80036" points="274.5,465.9453,284.5,469.9453,274.5,473.9453,278.5,469.9453" style="stroke: #A80036; stroke-width: 1.0;"/><line style="stroke: #A80036; stroke-width: 1.0;" x1="41.5" x2="280.5" y1="469.9453" y2="469.9453"/><text fill="#000000" font-family="sans-serif" font-size="13" font-weight="bold" lengthAdjust="spacingAndGlyphs" textLength="9" x="48.5" y="465.2031">3</text><text fill="#000000" font-family="sans-serif" font-size="13" lengthAdjust="spacingAndGlyphs" textLength="208" x="61.5" y="465.2031">创建该产品实验室实例，并配置规则</text><path d="M291,433.3242 L291,488.3242 L546,488.3242 L546,443.3242 L536,433.3242 L291,433.3242 " fill="#FBFB77" filter="url(#fypalthm1v0gt)" style="stroke: #A80036; stroke-width: 1.0;"/><path d="M536,433.3242 L536,443.3242 L546,443.3242 L536,433.3242 " fill="#FBFB77" style="stroke: #A80036; stroke-width: 1.0;"/><text fill="#000000" font-family="sans-serif" font-size="13" lengthAdjust="spacingAndGlyphs" textLength="234" x="297" y="450.8926">e.g. 静态资源检测-DTX-58SIT-AKE2.0</text><text fill="#000000" font-family="sans-serif" font-size="13" lengthAdjust="spacingAndGlyphs" textLength="181" x="297" y="466.2031">1 通过率：passRate &gt;= 100%</text><text fill="#000000" font-family="sans-serif" font-size="13" lengthAdjust="spacingAndGlyphs" textLength="189" x="297" y="481.5137">2 执行状态：status = SUCCESS</text><path d="M13,512.2559 L75,512.2559 L75,519.2559 L65,529.2559 L13,529.2559 L13,512.2559 " fill="#EEEEEE" style="stroke: #000000; stroke-width: 1.0;"/><rect fill="none" height="795.4531" style="stroke: #000000; stroke-width: 2.0;" width="791.5" x="13" y="512.2559"/><text fill="#000000" font-family="sans-serif" font-size="13" font-weight="bold" lengthAdjust="spacingAndGlyphs" textLength="17" x="28" y="525.8242">alt</text><text fill="#000000" font-family="sans-serif" font-size="11" font-weight="bold" lengthAdjust="spacingAndGlyphs" textLength="85" x="90" y="524.8906">[静态资源实验室]</text><polygon fill="#A80036" points="486.5,546.877,496.5,550.877,486.5,554.877,490.5,550.877" style="stroke: #A80036; stroke-width: 1.0;"/><line style="stroke: #A80036; stroke-width: 1.0;" x1="41.5" x2="492.5" y1="550.877" y2="550.877"/><text fill="#000000" font-family="sans-serif" font-size="13" font-weight="bold" lengthAdjust="spacingAndGlyphs" textLength="9" x="48.5" y="546.1348">1</text><text fill="#000000" font-family="sans-serif" font-size="13" lengthAdjust="spacingAndGlyphs" textLength="139" x="61.5" y="546.1348">部署58SIT-AKE2.0环境</text><line style="stroke: #A80036; stroke-width: 1.0;" x1="498.5" x2="540.5" y1="580.1875" y2="580.1875"/><line style="stroke: #A80036; stroke-width: 1.0;" x1="540.5" x2="540.5" y1="580.1875" y2="593.1875"/><line style="stroke: #A80036; stroke-width: 1.0;" x1="499.5" x2="540.5" y1="593.1875" y2="593.1875"/><polygon fill="#A80036" points="509.5,589.1875,499.5,593.1875,509.5,597.1875,505.5,593.1875" style="stroke: #A80036; stroke-width: 1.0;"/><text fill="#000000" font-family="sans-serif" font-size="13" font-weight="bold" lengthAdjust="spacingAndGlyphs" textLength="9" x="505.5" y="575.4453">1</text><text fill="#000000" font-family="sans-serif" font-size="13" lengthAdjust="spacingAndGlyphs" textLength="94" x="518.5" y="575.4453">.1 环境部署完成</text><line style="stroke: #A80036; stroke-width: 1.0;" x1="498.5" x2="540.5" y1="622.498" y2="622.498"/><line style="stroke: #A80036; stroke-width: 1.0;" x1="540.5" x2="540.5" y1="622.498" y2="635.498"/><line style="stroke: #A80036; stroke-width: 1.0;" x1="499.5" x2="540.5" y1="635.498" y2="635.498"/><polygon fill="#A80036" points="509.5,631.498,499.5,635.498,509.5,639.498,505.5,635.498" style="stroke: #A80036; stroke-width: 1.0;"/><text fill="#000000" font-family="sans-serif" font-size="13" font-weight="bold" lengthAdjust="spacingAndGlyphs" textLength="9" x="505.5" y="617.7559">1</text><text fill="#000000" font-family="sans-serif" font-size="13" lengthAdjust="spacingAndGlyphs" textLength="94" x="518.5" y="617.7559">.2 生成风险配置</text><polygon fill="#A80036" points="297.5,660.8086,287.5,664.8086,297.5,668.8086,293.5,664.8086" style="stroke: #A80036; stroke-width: 1.0;"/><line style="stroke: #A80036; stroke-width: 1.0;" x1="291.5" x2="497.5" y1="664.8086" y2="664.8086"/><text fill="#000000" font-family="sans-serif" font-size="13" font-weight="bold" lengthAdjust="spacingAndGlyphs" textLength="9" x="303.5" y="660.0664">1</text><text fill="#000000" font-family="sans-serif" font-size="13" lengthAdjust="spacingAndGlyphs" textLength="94" x="316.5" y="660.0664">.3 通知风险更新</text><path d="M253.5,679.8086 L327.5,679.8086 L327.5,686.8086 L317.5,696.8086 L253.5,696.8086 L253.5,679.8086 " fill="#EEEEEE" style="stroke: #000000; stroke-width: 1.0;"/><rect fill="none" height="46.6211" style="stroke: #000000; stroke-width: 2.0;" width="278" x="253.5" y="679.8086"/><text fill="#000000" font-family="sans-serif" font-size="13" font-weight="bold" lengthAdjust="spacingAndGlyphs" textLength="29" x="268.5" y="693.377">loop</text><text fill="#000000" font-family="sans-serif" font-size="11" font-weight="bold" lengthAdjust="spacingAndGlyphs" textLength="30" x="342.5" y="692.4434">[轮询]</text><polygon fill="#A80036" points="297.5,714.4297,287.5,718.4297,297.5,722.4297,293.5,718.4297" style="stroke: #A80036; stroke-width: 1.0;"/><line style="stroke: #A80036; stroke-width: 1.0;" x1="291.5" x2="497.5" y1="718.4297" y2="718.4297"/><text fill="#000000" font-family="sans-serif" font-size="13" font-weight="bold" lengthAdjust="spacingAndGlyphs" textLength="9" x="303.5" y="713.6875">1</text><text fill="#000000" font-family="sans-serif" font-size="13" lengthAdjust="spacingAndGlyphs" textLength="120" x="316.5" y="713.6875">.4 拉取风险数据信息</text><path d="M243.5,740.4297 L305.5,740.4297 L305.5,747.4297 L295.5,757.4297 L243.5,757.4297 L243.5,740.4297 " fill="#EEEEEE" style="stroke: #000000; stroke-width: 1.0;"/><rect fill="none" height="361.1055" style="stroke: #000000; stroke-width: 2.0;" width="551" x="243.5" y="740.4297"/><text fill="#000000" font-family="sans-serif" font-size="13" font-weight="bold" lengthAdjust="spacingAndGlyphs" textLength="17" x="258.5" y="753.998">alt</text><text fill="#000000" font-family="sans-serif" font-size="11" font-weight="bold" lengthAdjust="spacingAndGlyphs" textLength="74" x="320.5" y="753.0645">[云鉴风险计算]</text><line style="stroke: #A80036; stroke-width: 1.0;" x1="286.5" x2="328.5" y1="779.0508" y2="779.0508"/><line style="stroke: #A80036; stroke-width: 1.0;" x1="328.5" x2="328.5" y1="779.0508" y2="792.0508"/><line style="stroke: #A80036; stroke-width: 1.0;" x1="287.5" x2="328.5" y1="792.0508" y2="792.0508"/><polygon fill="#A80036" points="297.5,788.0508,287.5,792.0508,297.5,796.0508,293.5,792.0508" style="stroke: #A80036; stroke-width: 1.0;"/><text fill="#000000" font-family="sans-serif" font-size="13" font-weight="bold" lengthAdjust="spacingAndGlyphs" textLength="9" x="293.5" y="774.3086">2</text><text fill="#000000" font-family="sans-serif" font-size="13" lengthAdjust="spacingAndGlyphs" textLength="78" x="306.5" y="774.3086">前置风险生成</text><line style="stroke: #A80036; stroke-width: 1.0;" x1="286.5" x2="328.5" y1="821.3613" y2="821.3613"/><line style="stroke: #A80036; stroke-width: 1.0;" x1="328.5" x2="328.5" y1="821.3613" y2="834.3613"/><line style="stroke: #A80036; stroke-width: 1.0;" x1="287.5" x2="328.5" y1="834.3613" y2="834.3613"/><polygon fill="#A80036" points="297.5,830.3613,287.5,834.3613,297.5,838.3613,293.5,834.3613" style="stroke: #A80036; stroke-width: 1.0;"/><text fill="#000000" font-family="sans-serif" font-size="13" font-weight="bold" lengthAdjust="spacingAndGlyphs" textLength="9" x="293.5" y="816.6191">2</text><text fill="#000000" font-family="sans-serif" font-size="13" lengthAdjust="spacingAndGlyphs" textLength="120" x="306.5" y="816.6191">.1 产品全局接入验证</text><line style="stroke: #A80036; stroke-width: 1.0;" x1="286.5" x2="328.5" y1="863.6719" y2="863.6719"/><line style="stroke: #A80036; stroke-width: 1.0;" x1="328.5" x2="328.5" y1="863.6719" y2="876.6719"/><line style="stroke: #A80036; stroke-width: 1.0;" x1="287.5" x2="328.5" y1="876.6719" y2="876.6719"/><polygon fill="#A80036" points="297.5,872.6719,287.5,876.6719,297.5,880.6719,293.5,876.6719" style="stroke: #A80036; stroke-width: 1.0;"/><text fill="#000000" font-family="sans-serif" font-size="13" font-weight="bold" lengthAdjust="spacingAndGlyphs" textLength="9" x="293.5" y="858.9297">2</text><text fill="#000000" font-family="sans-serif" font-size="13" lengthAdjust="spacingAndGlyphs" textLength="133" x="306.5" y="858.9297">.2 必备实验室实例验证</text><line style="stroke: #A80036; stroke-width: 1.0;" x1="286.5" x2="328.5" y1="905.9824" y2="905.9824"/><line style="stroke: #A80036; stroke-width: 1.0;" x1="328.5" x2="328.5" y1="905.9824" y2="918.9824"/><line style="stroke: #A80036; stroke-width: 1.0;" x1="287.5" x2="328.5" y1="918.9824" y2="918.9824"/><polygon fill="#A80036" points="297.5,914.9824,287.5,918.9824,297.5,922.9824,293.5,918.9824" style="stroke: #A80036; stroke-width: 1.0;"/><text fill="#000000" font-family="sans-serif" font-size="13" font-weight="bold" lengthAdjust="spacingAndGlyphs" textLength="9" x="293.5" y="901.2402">2</text><text fill="#000000" font-family="sans-serif" font-size="13" lengthAdjust="spacingAndGlyphs" textLength="146" x="306.5" y="901.2402">.3 过滤已停用实验室实例</text><polygon fill="#A80036" points="656.5,944.293,666.5,948.293,656.5,952.293,660.5,948.293" style="stroke: #A80036; stroke-width: 1.0;"/><line style="stroke: #A80036; stroke-width: 1.0;" x1="286.5" x2="662.5" y1="948.293" y2="948.293"/><text fill="#000000" font-family="sans-serif" font-size="13" font-weight="bold" lengthAdjust="spacingAndGlyphs" textLength="9" x="293.5" y="943.5508">2</text><text fill="#000000" font-family="sans-serif" font-size="13" lengthAdjust="spacingAndGlyphs" textLength="133" x="306.5" y="943.5508">.4 触发实验室关联任务</text><line style="stroke: #A80036; stroke-width: 1.0;" x1="668.5" x2="710.5" y1="977.6035" y2="977.6035"/><line style="stroke: #A80036; stroke-width: 1.0;" x1="710.5" x2="710.5" y1="977.6035" y2="990.6035"/><line style="stroke: #A80036; stroke-width: 1.0;" x1="669.5" x2="710.5" y1="990.6035" y2="990.6035"/><polygon fill="#A80036" points="679.5,986.6035,669.5,990.6035,679.5,994.6035,675.5,990.6035" style="stroke: #A80036; stroke-width: 1.0;"/><text fill="#000000" font-family="sans-serif" font-size="13" font-weight="bold" lengthAdjust="spacingAndGlyphs" textLength="9" x="675.5" y="972.8613">2</text><text fill="#000000" font-family="sans-serif" font-size="13" lengthAdjust="spacingAndGlyphs" textLength="94" x="688.5" y="972.8613">.5 调度任务执行</text><path d="M253.5,1005.6035 L327.5,1005.6035 L327.5,1012.6035 L317.5,1022.6035 L253.5,1022.6035 L253.5,1005.6035 " fill="#EEEEEE" style="stroke: #000000; stroke-width: 1.0;"/><rect fill="none" height="46.6211" style="stroke: #000000; stroke-width: 2.0;" width="448" x="253.5" y="1005.6035"/><text fill="#000000" font-family="sans-serif" font-size="13" font-weight="bold" lengthAdjust="spacingAndGlyphs" textLength="29" x="268.5" y="1019.1719">loop</text><text fill="#000000" font-family="sans-serif" font-size="11" font-weight="bold" lengthAdjust="spacingAndGlyphs" textLength="30" x="342.5" y="1018.2383">[轮询]</text><polygon fill="#A80036" points="656.5,1040.2246,666.5,1044.2246,656.5,1048.2246,660.5,1044.2246" style="stroke: #A80036; stroke-width: 1.0;"/><line style="stroke: #A80036; stroke-width: 1.0;" x1="286.5" x2="662.5" y1="1044.2246" y2="1044.2246"/><text fill="#000000" font-family="sans-serif" font-size="13" font-weight="bold" lengthAdjust="spacingAndGlyphs" textLength="9" x="293.5" y="1039.4824">2</text><text fill="#000000" font-family="sans-serif" font-size="13" lengthAdjust="spacingAndGlyphs" textLength="94" x="306.5" y="1039.4824">.6 查询运行结果</text><line style="stroke: #A80036; stroke-width: 1.0;" x1="286.5" x2="328.5" y1="1080.5352" y2="1080.5352"/><line style="stroke: #A80036; stroke-width: 1.0;" x1="328.5" x2="328.5" y1="1080.5352" y2="1093.5352"/><line style="stroke: #A80036; stroke-width: 1.0;" x1="287.5" x2="328.5" y1="1093.5352" y2="1093.5352"/><polygon fill="#A80036" points="297.5,1089.5352,287.5,1093.5352,297.5,1097.5352,293.5,1093.5352" style="stroke: #A80036; stroke-width: 1.0;"/><text fill="#000000" font-family="sans-serif" font-size="13" font-weight="bold" lengthAdjust="spacingAndGlyphs" textLength="9" x="293.5" y="1075.793">2</text><text fill="#000000" font-family="sans-serif" font-size="13" lengthAdjust="spacingAndGlyphs" textLength="185" x="306.5" y="1075.793">.7 根据任务结果生成规则与风险</text><line style="stroke: #A80036; stroke-width: 1.0;" x1="498.5" x2="540.5" y1="1129.8457" y2="1129.8457"/><line style="stroke: #A80036; stroke-width: 1.0;" x1="540.5" x2="540.5" y1="1129.8457" y2="1142.8457"/><line style="stroke: #A80036; stroke-width: 1.0;" x1="499.5" x2="540.5" y1="1142.8457" y2="1142.8457"/><polygon fill="#A80036" points="509.5,1138.8457,499.5,1142.8457,509.5,1146.8457,505.5,1142.8457" style="stroke: #A80036; stroke-width: 1.0;"/><text fill="#000000" font-family="sans-serif" font-size="13" font-weight="bold" lengthAdjust="spacingAndGlyphs" textLength="9" x="505.5" y="1125.1035">3</text><text fill="#000000" font-family="sans-serif" font-size="13" lengthAdjust="spacingAndGlyphs" textLength="143" x="518.5" y="1125.1035">轮询获得风险数据，卡点</text><polygon fill="#A80036" points="274.5,1196.1221,284.5,1200.1221,274.5,1204.1221,278.5,1200.1221" style="stroke: #A80036; stroke-width: 1.0;"/><line style="stroke: #A80036; stroke-width: 1.0;" x1="41.5" x2="280.5" y1="1200.1221" y2="1200.1221"/><text fill="#000000" font-family="sans-serif" font-size="13" font-weight="bold" lengthAdjust="spacingAndGlyphs" textLength="9" x="48.5" y="1195.3799">4</text><text fill="#000000" font-family="sans-serif" font-size="13" lengthAdjust="spacingAndGlyphs" textLength="78" x="61.5" y="1195.3799">处理相关风险</text><path d="M291,1155.8457 L291,1226.8457 L554,1226.8457 L554,1165.8457 L544,1155.8457 L291,1155.8457 " fill="#FBFB77" filter="url(#fypalthm1v0gt)" style="stroke: #A80036; stroke-width: 1.0;"/><path d="M544,1155.8457 L544,1165.8457 L554,1165.8457 L544,1155.8457 " fill="#FBFB77" style="stroke: #A80036; stroke-width: 1.0;"/><text fill="#000000" font-family="sans-serif" font-size="13" lengthAdjust="spacingAndGlyphs" textLength="52" x="297" y="1173.4141">三种情况</text><text fill="#000000" font-family="sans-serif" font-size="13" lengthAdjust="spacingAndGlyphs" textLength="242" x="297" y="1188.7246">1、修改代码解决问题，自动重复以上过程</text><text fill="#000000" font-family="sans-serif" font-size="13" lengthAdjust="spacingAndGlyphs" textLength="229" x="297" y="1204.0352">2、无需修改代码，手动重试相关实验室</text><text fill="#000000" font-family="sans-serif" font-size="13" lengthAdjust="spacingAndGlyphs" textLength="73" x="309" y="1219.3457">3、申请跳过</text><polygon fill="#A80036" points="486.5,1253.3984,496.5,1257.3984,486.5,1261.3984,490.5,1257.3984" style="stroke: #A80036; stroke-width: 1.0;"/><line style="stroke: #A80036; stroke-width: 1.0;" x1="286.5" x2="492.5" y1="1257.3984" y2="1257.3984"/><text fill="#000000" font-family="sans-serif" font-size="13" font-weight="bold" lengthAdjust="spacingAndGlyphs" textLength="9" x="293.5" y="1252.6563">5</text><text fill="#000000" font-family="sans-serif" font-size="13" lengthAdjust="spacingAndGlyphs" textLength="91" x="306.5" y="1252.6563">通知风险已处理</text><line style="stroke: #A80036; stroke-width: 1.0;" x1="498.5" x2="540.5" y1="1286.709" y2="1286.709"/><line style="stroke: #A80036; stroke-width: 1.0;" x1="540.5" x2="540.5" y1="1286.709" y2="1299.709"/><line style="stroke: #A80036; stroke-width: 1.0;" x1="499.5" x2="540.5" y1="1299.709" y2="1299.709"/><polygon fill="#A80036" points="509.5,1295.709,499.5,1299.709,509.5,1303.709,505.5,1299.709" style="stroke: #A80036; stroke-width: 1.0;"/><text fill="#000000" font-family="sans-serif" font-size="13" font-weight="bold" lengthAdjust="spacingAndGlyphs" textLength="9" x="505.5" y="1281.9668">6</text><text fill="#000000" font-family="sans-serif" font-size="13" lengthAdjust="spacingAndGlyphs" textLength="78" x="518.5" y="1281.9668">风险数据更新</text><!--
@startuml

title 质量门禁调用时序图

autonumber
actor User

alt 基础实验室配置
    User -> 云鉴:添加实验室元数据
        note right
            当创建一个全新当实验室，应该执行此步骤
            1. 指定实验室名称
            2. 指定实验室标识码
            3. 指定接入方式
            4. 添加规则模板与风险模板
            5. 调整产品接入信息
        end note
end

alt 前置准备
    autonumber 1
	User -> 云游:产品对接云游
	User -> 云启:创建场景与任务
        note right
            有两种创建任务的手段，以静态资源检测室实验室为例
            1. 在云启上新建场景与任务：e.g. 静态资源检测-DTX-58SIT-AKE2.0
               在云鉴上新建实验室时，关联该任务
            2. 在云鉴赏新建实验室时，根据模板创建云启场景与任务
               修改任务参数，使之可以合理运行
        end note
    User -> 云鉴:创建该产品实验室实例，并配置规则
        note right
            e.g. 静态资源检测-DTX-58SIT-AKE2.0
            1 通过率：passRate >= 100%
            2 执行状态：status = SUCCESS
        end note
end

alt 静态资源实验室
	autonumber 1 
    User -> 云游:部署58SIT-AKE2.0环境
    autonumber 1 
    云游 -> 云游:.1 环境部署完成
    autonumber 1 
    云游 -> 云游:.2 生成风险配置
    autonumber 1 
    云游 -> 云鉴:.3 通知风险更新
    loop 轮询
        autonumber 1
    	云游 -> 云鉴:.4 拉取风险数据信息
    end

    alt 云鉴风险计算
        云鉴 -> 云鉴:前置风险生成
        autonumber 2 
        云鉴 -> 云鉴:.1 产品全局接入验证
        autonumber 2 
        云鉴 -> 云鉴:.2 必备实验室实例验证
        autonumber 2 
        云鉴 -> 云鉴:.3 过滤已停用实验室实例
        autonumber 2 
        云鉴 -> 云启:.4 触发实验室关联任务
        autonumber 2 
        云启 -> 云启:.5 调度任务执行
        loop 轮询
            autonumber 2 
            云鉴 -> 云启:.6 查询运行结果
        end
        autonumber 2 
        云鉴 -> 云鉴:.7 根据任务结果生成规则与风险
    end
    
    云游 -> 云游:轮询获得风险数据，卡点
    User -> 云鉴:处理相关风险
    note right
    	三种情况
    	1、修改代码解决问题，自动重复以上过程
    	2、无需修改代码，手动重试相关实验室
        3、申请跳过
    end note
    云鉴 -> 云游:通知风险已处理
    云游 -> 云游:风险数据更新
end

@enduml

PlantUML version 1.2019.09(Tue Aug 27 00:19:51 CST 2019)
(GPL source distribution)
Java Runtime: OpenJDK Runtime Environment
JVM: OpenJDK 64-Bit Server VM
Java Version: 12.0.2+10
Operating System: Mac OS X
OS Version: 10.14.2
Default Encoding: UTF-8
Language: en
Country: CN
--></g></svg>